<svg id="_020-telephone-3" data-name="020-telephone-3" xmlns="http://www.w3.org/2000/svg" width="24.801" height="24.801" viewBox="0 0 24.801 24.801">
  <g id="Group_39" data-name="Group 39">
    <g id="Group_38" data-name="Group 38">
      <path id="Path_226" data-name="Path 226" d="M18.262,0H6.539A6.547,6.547,0,0,0,0,6.539V7.992a2.182,2.182,0,0,0,2.18,2.18H5.086a2.182,2.182,0,0,0,2.18-2.18V6.539a.727.727,0,0,1,.727-.727h8.816a.727.727,0,0,1,.727.727V7.992a2.182,2.182,0,0,0,2.18,2.18h2.906a2.182,2.182,0,0,0,2.18-2.18V6.539A6.547,6.547,0,0,0,18.262,0ZM5.813,7.992a.727.727,0,0,1-.727.727H2.18a.727.727,0,0,1-.727-.727V7.266h4.36Zm11-3.633H7.992A2.183,2.183,0,0,0,5.938,5.813H1.505a5.094,5.094,0,0,1,5.034-4.36H18.262A5.094,5.094,0,0,1,23.3,5.813H18.863A2.183,2.183,0,0,0,16.808,4.36Zm6.539,3.633a.727.727,0,0,1-.727.727H19.715a.727.727,0,0,1-.727-.727V7.266h4.36Z" fill="#fd4a5c"/>
    </g>
  </g>
  <g id="Group_41" data-name="Group 41" transform="translate(1.453 7.266)">
    <g id="Group_40" data-name="Group 40">
      <path id="Path_227" data-name="Path 227" d="M51.617,163.09c-3.958-9.622-3.721-9.056-3.762-9.125a2.191,2.191,0,0,0-1.869-1.058H44.629v-.727a2.182,2.182,0,0,0-2.18-2.18h-3a2.182,2.182,0,0,0-2.18,2.18v.727H35.909a2.173,2.173,0,0,0-1.918,1.156l-3.712,9.025A3.615,3.615,0,0,0,30,164.482v.873a2.182,2.182,0,0,0,2.18,2.18H49.715a2.182,2.182,0,0,0,2.18-2.18v-.873A3.611,3.611,0,0,0,51.617,163.09Zm-12.9-10.91a.727.727,0,0,1,.727-.727h3a.727.727,0,0,1,.727.727v.727H38.719Zm11.722,13.175a.727.727,0,0,1-.727.727H32.18a.727.727,0,0,1-.727-.727v-.873a2.173,2.173,0,0,1,.168-.839l3.689-8.968a.731.731,0,0,1,.6-.315H45.986a.731.731,0,0,1,.6.315l3.69,8.971a2.169,2.169,0,0,1,.167.837Z" transform="translate(-30 -150)" fill="#fd4a5c"/>
    </g>
  </g>
  <g id="Group_43" data-name="Group 43" transform="translate(8.089 13.079)">
    <g id="Group_42" data-name="Group 42">
      <path id="Path_228" data-name="Path 228" d="M171.36,270a4.36,4.36,0,1,0,4.359,4.36A4.364,4.364,0,0,0,171.36,270Zm0,7.266a2.906,2.906,0,1,1,2.906-2.906A2.91,2.91,0,0,1,171.36,277.266Z" transform="translate(-167 -270)" fill="#fd4a5c"/>
    </g>
  </g>
  <g id="Group_45" data-name="Group 45" transform="translate(10.996 15.985)">
    <g id="Group_44" data-name="Group 44">
      <path id="Path_229" data-name="Path 229" d="M228.453,330a1.453,1.453,0,1,0,1.453,1.453A1.455,1.455,0,0,0,228.453,330Z" transform="translate(-227 -330)" fill="#fd4a5c"/>
    </g>
  </g>
</svg>
