<svg xmlns="http://www.w3.org/2000/svg" width="24.836" height="28.258" viewBox="0 0 24.836 28.258">
  <path id="Path_231" data-name="Path 231" d="M55.836,10.871a.833.833,0,0,0-.242-.584L52.524,7.218V.828A.828.828,0,0,0,51.7,0H35.139a.828.828,0,0,0-.828.828v6.39l-3.069,3.069-.008.009a.831.831,0,0,0-.234.575v14.9a2.486,2.486,0,0,0,2.484,2.484H53.352a2.486,2.486,0,0,0,2.484-2.484v-14.9ZM52.524,9.56l1.313,1.313-1.313,1.313Zm-16.557-2h0V1.656h14.9V7.561h0v6.28l-4.482,4.482H40.449l-4.482-4.482Zm-1.656,2v2.626L33,10.873ZM32.656,25.431V12.871l6.28,6.28ZM33.827,26.6l6.623-6.623h5.937L53.009,26.6ZM54.18,25.431l-6.28-6.28,6.28-6.28Z" transform="translate(-31 0)" fill="#fd4a5c"/>
</svg>
