<svg id="instagram-logo" xmlns="http://www.w3.org/2000/svg" width="24.801" height="24.801" viewBox="0 0 24.801 24.801">
  <path id="Path_244" data-name="Path 244" d="M17.957,0H6.844A6.852,6.852,0,0,0,0,6.844V17.957A6.852,6.852,0,0,0,6.844,24.8H17.957A6.852,6.852,0,0,0,24.8,17.957V6.844A6.852,6.852,0,0,0,17.957,0ZM22.6,17.957A4.649,4.649,0,0,1,17.957,22.6H6.844A4.649,4.649,0,0,1,2.2,17.957V6.844A4.649,4.649,0,0,1,6.844,2.2H17.957A4.649,4.649,0,0,1,22.6,6.844V17.957Z" fill="#fd4a5c"/>
  <path id="Path_245" data-name="Path 245" d="M47.359,40.97a6.39,6.39,0,1,0,6.391,6.391A6.4,6.4,0,0,0,47.359,40.97Zm0,10.58a4.19,4.19,0,1,1,4.19-4.19A4.195,4.195,0,0,1,47.359,51.55Z" transform="translate(-34.958 -34.96)" fill="#fd4a5c"/>
  <path id="Path_246" data-name="Path 246" d="M120.535,28.251a1.613,1.613,0,1,0,1.141.472A1.62,1.62,0,0,0,120.535,28.251Z" transform="translate(-101.476 -24.107)" fill="#fd4a5c"/>
</svg>
