<svg xmlns="http://www.w3.org/2000/svg" width="25.051" height="25.051" viewBox="0 0 25.051 25.051">
  <g id="facebook" transform="translate(0.125 0.125)">
    <g id="Group_62" data-name="Group 62">
      <path id="Path_253" data-name="Path 253" d="M21.168,0H3.633A3.637,3.637,0,0,0,0,3.633V21.168A3.637,3.637,0,0,0,3.633,24.8H21.168A3.637,3.637,0,0,0,24.8,21.168V3.633A3.637,3.637,0,0,0,21.168,0ZM14.58,15.258v8.089H13.127V15.258a.727.727,0,0,0-.727-.727h-2.18V13.079H12.4a.727.727,0,0,0,.727-.727V9.446A3.637,3.637,0,0,1,16.76,5.813h2.18V7.266H16.76a2.182,2.182,0,0,0-2.18,2.18v2.906a.727.727,0,0,0,.727.727h3.429l-.363,1.453H15.307A.727.727,0,0,0,14.58,15.258Zm8.767,5.91a2.182,2.182,0,0,1-2.18,2.18H16.033V15.985H18.94a.727.727,0,0,0,.7-.55l.727-2.906a.727.727,0,0,0-.7-.9H16.033V9.446a.727.727,0,0,1,.727-.727h2.906a.727.727,0,0,0,.727-.727V5.086a.727.727,0,0,0-.727-.727H16.76a5.092,5.092,0,0,0-5.086,5.086v2.18H9.494a.727.727,0,0,0-.727.727v2.906a.722.722,0,0,0,.727.722h2.18v7.368H3.633a2.182,2.182,0,0,1-2.18-2.18V3.633a2.182,2.182,0,0,1,2.18-2.18H21.168a2.182,2.182,0,0,1,2.18,2.18Z" fill="#fd4a5c" stroke="#ff0015" stroke-width="0.25"/>
    </g>
  </g>
</svg>
