<svg xmlns="http://www.w3.org/2000/svg" width="24.801" height="19.999" viewBox="0 0 24.801 19.999">
  <g id="twitter-logo" transform="translate(0 -19.237)">
    <path id="Path_247" data-name="Path 247" d="M24.634,39.657a.936.936,0,0,0-1.3-.235l-2.906,2.016a.936.936,0,0,0-.4.81c.008.192.012.373.012.552A11.968,11.968,0,0,1,7.951,54.884a12.035,12.035,0,0,1-4.473-.86L7.963,52.77a.936.936,0,1,0-.5-1.8l-6.775,1.9a.936.936,0,0,0-.253,1.689,13.909,13.909,0,0,0,7.52,2.2A13.387,13.387,0,0,0,18.32,52.2a14.418,14.418,0,0,0,3.587-9.4q0-.056,0-.111L24.4,40.96A.936.936,0,0,0,24.634,39.657Z" transform="translate(0 -17.52)" fill="#fd4a5c"/>
    <path id="Path_248" data-name="Path 248" d="M12.957,21.846l9.432,4.781a.936.936,0,0,0,1.335-1.047,3.643,3.643,0,0,1,6.2-3.322.936.936,0,0,0,1,.239l2.911-1.058a.936.936,0,1,0-.639-1.759l-2.369.861a5.514,5.514,0,0,0-9.05,3.68L13.8,20.176a.936.936,0,1,0-.846,1.67Z" transform="translate(-10.891)" fill="#fd4a5c"/>
    <path id="Path_249" data-name="Path 249" d="M7.87,72.159l2.073.572a.936.936,0,0,0,.5-1.8l-2.073-.572a.936.936,0,1,0-.5,1.8Z" transform="translate(-6.286 -44.709)" fill="#fd4a5c"/>
    <path id="Path_250" data-name="Path 250" d="M20.935,106.822a.936.936,0,0,0,.035,1.871h.036l2.067-.078a.936.936,0,1,0-.071-1.87Z" transform="translate(-17.534 -76.586)" fill="#fd4a5c"/>
  </g>
</svg>
