<svg xmlns="http://www.w3.org/2000/svg" width="24.998" height="25" viewBox="0 0 24.998 25">
  <path id="Path_232" data-name="Path 232" d="M24.372,7.867a2.2,2.2,0,0,0-3.108,0l-2.2,2.205v-5.8a2.183,2.183,0,0,0-.644-1.554L16.346.644A2.183,2.183,0,0,0,14.792,0H2.215a2.2,2.2,0,0,0-2.2,2.2V22.8a2.2,2.2,0,0,0,2.2,2.2H16.864a2.2,2.2,0,0,0,2.2-2.2V16.29l5.311-5.316A2.2,2.2,0,0,0,24.372,7.867Zm-9.706-6.4a.8.8,0,0,1,.644.215l2.072,2.072a.8.8,0,0,1,.215.644h-2.93ZM17.6,22.8a.733.733,0,0,1-.732.732H2.215a.733.733,0,0,1-.732-.732V2.2a.733.733,0,0,1,.732-.732H13.2V5.127a.732.732,0,0,0,.732.732H17.6v5.68L15.435,13.7,14.4,14.737a.732.732,0,0,0-.177.286l-1.036,3.107a.732.732,0,0,0,.926.926l3.107-1.036a.732.732,0,0,0,.286-.177l.089-.089V22.8Zm-1.643-7.547,1.036,1.036-.4.4L15.04,17.2l.518-1.554Zm2.071,0-1.036-1.036L20.51,10.7l1.036,1.036Zm5.311-5.316-.755.756L21.545,9.659,22.3,8.9a.732.732,0,1,1,1.036,1.036Z" transform="translate(-0.018)" fill="#fd4a5c"/>
</svg>
