<svg xmlns="http://www.w3.org/2000/svg" width="22.818" height="21.982" viewBox="0 0 22.818 21.982"><path d="M2.929,0H19.89a2.809,2.809,0,0,1,2.929,2.821v16.34a2.809,2.809,0,0,1-2.929,2.821H2.929A2.809,2.809,0,0,1,0,19.161V2.821A2.809,2.809,0,0,1,2.929,0ZM16.622,2.442a1.011,1.011,0,0,0-1.027.99V5.8a1.012,1.012,0,0,0,1.027.99H19.2a1.012,1.012,0,0,0,1.027-.99V3.432a1.012,1.012,0,0,0-1.027-.99ZM20.239,9.3H18.231a6.212,6.212,0,0,1,.293,1.886,6.869,6.869,0,0,1-7.093,6.62,6.869,6.869,0,0,1-7.092-6.62A6.2,6.2,0,0,1,4.631,9.3h-2.1v9.286a.894.894,0,0,0,.907.874h15.89a.894.894,0,0,0,.907-.874V9.3ZM11.431,6.666a4.438,4.438,0,0,0-4.583,4.278,4.438,4.438,0,0,0,4.583,4.278,4.438,4.438,0,0,0,4.583-4.278A4.438,4.438,0,0,0,11.431,6.666Z" fill="#fff"/></svg>