<svg xmlns="http://www.w3.org/2000/svg" width="106.98" height="106.98" viewBox="0 0 106.98 106.98"><g transform="translate(28.735 16.593)" opacity="0.4"><path d="M207.919,58.834a1.241,1.241,0,0,0-1.682.506c-.048.085-4.809,8.634-18.01,7.253a17.505,17.505,0,0,1-7.7-2.888h0s-1.22-.837-1.887.27a1.358,1.358,0,0,0,.386,1.709,19.843,19.843,0,0,0,8.938,3.381c14.845,1.555,20.235-8.135,20.457-8.545a1.241,1.241,0,0,0-.506-1.685Z" transform="translate(-146.2 -55.22)" fill="#fff"/><path d="M163.525,77.108c1.651-3.948,3.076-7.383,4.15-9.971l-1.907-.933a26.539,26.539,0,0,1-1.367,3.052c-1.261,2.372-3.736,1.76-2.974-1.367,0,0,1.545-5.175,2.393-7.913,1.172-3.719,5.192-3.247,4.15.718l1.818.988a5.626,5.626,0,0,0-.571-4.809,3.483,3.483,0,0,0-3.028-1.463c-.742.038-3.268.461-4.512,4.341-.342,1.025-2.208,7-4.785,15.135Z" transform="translate(-131.998 -53.06)" fill="#fff"/><path d="M105.848,213.483a39.1,39.1,0,0,0-8.323-3.169c-6.884-2.071-11.365-3.729-10.938-7.769a7.147,7.147,0,0,1,3.121-5.387c1.979-1.395,4.922-2.218,8.631-2.482l.759-2.546c-4.655.209-8.289,1.21-10.822,2.994a9.639,9.639,0,0,0-4.163,7.158c-.684,6.4,6.429,8.528,12.7,10.412,6.494,1.959,10.743,3.507,10.33,7.065a1.241,1.241,0,0,0,1.09,1.367,1.075,1.075,0,0,0,.209,0,1.237,1.237,0,0,0,1.169-1.1C109.922,217.38,108.654,215.158,105.848,213.483Z" transform="translate(-84.066 -143.051)" fill="#fff"/><path d="M135.432,76.835c-8.979-2.776-12.456-3.948-18.212-5.9l-4.826-1.627c-4.426-1.47-9.137-5.3-7.886-11.181.817-3.811,4.478-7.639,10.6-7.038,3.076.3,5.718,2.15,8.443,4.232l.827-2.492c-2.779-2.088-5.554-3.869-9.027-4.211-7.633-.752-12.23,4.132-13.269,8.99a10.938,10.938,0,0,0,1.4,8.067A14.763,14.763,0,0,0,111.6,71.67c1.829.612,3.4,1.142,4.823,1.624,5.777,1.955,9.263,3.134,18.273,5.913,6.153,1.9,11.393,7.4,9.506,14.247-1.777,6.443-8.248,7.944-13.878,6.576a88.871,88.871,0,0,0-12.24-2.164l-1.025,2.393a85.036,85.036,0,0,1,12.671,2.167,15.281,15.281,0,0,0,11.17-1.06,11.827,11.827,0,0,0,5.691-7.27C148.346,87.78,145.071,79.805,135.432,76.835Z" transform="translate(-95.761 -48.545)" fill="#fff"/><path d="M119.309,167.2c4.529-10.685,10.7-25.256,15.641-37.032l-6.132-2.017L116.78,166.433Z" transform="translate(-105.598 -100.94)" fill="#fff"/><path d="M102.793,263.733a.554.554,0,0,0,.342.684.547.547,0,0,0,.684-.3c.072-.161,1.825-4.29,4.444-10.49L106.17,253Z" transform="translate(-96.376 -183.115)" fill="#fff"/></g><circle cx="53.49" cy="53.49" r="53.49" fill="#9e9b58"/><g transform="translate(32.11 17.094)" opacity="0.4"><path d="M145.52,253.334V250.87l-22.58.12v2.468h0v.848a.858.858,0,0,0,.878.837l20.85-.109a.858.858,0,0,0,.868-.848v-.851Z" transform="translate(-113.028 -182.214)" fill="#fff"/><path d="M148.876,75.967A.858.858,0,0,0,148,75.13l-11.526.062a.861.861,0,0,0-.872.848l.017,2.581,13.273-.068Z" transform="translate(-121.36 -66.544)" fill="#fff"/><path d="M174.286,194.49l-14.066,8.347,3.059,3.353,11.775-6.959Z" transform="translate(-137.565 -145.105)" fill="#fff"/><path d="M165.832,179.623l-.755-4.673-17.207,10.4,2.922,3.2Z" transform="translate(-129.436 -132.244)" fill="#fff"/><path d="M173,220.641l4.245,4.652h2.977a4.573,4.573,0,0,0,4.628-4.519L183.8,214.28Z" transform="translate(-145.977 -158.131)" fill="#fff"/><path d="M104.763,221.29l-.643,4.273a4.567,4.567,0,0,0,4.673,4.467l3.979-.021Z" transform="translate(-100.641 -162.745)" fill="#fff"/><path d="M107.03,203.985l10.224,11.129,5.561-.027L107.83,198.68Z" transform="translate(-102.556 -147.863)" fill="#fff"/><path d="M133.492,202.619,112.682,179.81l-1.8,1.066-.444,2.953,17.2,18.82Z" transform="translate(-104.8 -135.443)" fill="#fff"/><path d="M134.75,167.42l3.186,3.493,18.181-10.989-.766-4.744Z" transform="translate(-120.801 -119.232)" fill="#fff"/><path d="M99,119.307a7.715,7.715,0,0,0,1.911-.526h.038l13.97-8.279.038-.041,8.128-4.823h0l3.538-2.1a4.034,4.034,0,0,1,.461-.253h0s3.695-2.1,3.056,1.446a7.7,7.7,0,0,1-2.181,3.931l-.554-3.377-6.539,3.88-.017.031-10.48,6.183h0l-6.87,4.071,3.076,3.387,2.967-1.764h0l5.965-3.534h0l12.6-7.52a8.349,8.349,0,0,0,3.206-4.573c.263-1.449.342-3.288-1.025-3.8a3.425,3.425,0,0,0-3.418.342l-.585-3.5-2.69,1.6h0l-3.951,2.338h0l-18.4,10.911-.588,4.095s-3.76,1.935-5.185-1.142a2.707,2.707,0,0,1,1.6-3.589,26.087,26.087,0,0,0,4.614-1.822l21.7-12.818-7.745-8.45-5.78.031,8.374,9.249-1.675.995-9.092-10.046a4.59,4.59,0,0,0-3.11,2.987l8.47,9.27-1.678.995-7.158-7.838-.844,5.6,4.15,4.515-1.678,1-2.847-3.076-.926,6a11.891,11.891,0,0,1-2.964,1.6c-1.651.513-4.444.855-4.9,4.273C93.688,117.382,95.069,119.59,99,119.307Z" transform="translate(-93.941 -76.075)" fill="#fff"/><path d="M144.886,62.206c-3.859,1.025-5.592-1.258-6.129-2.143a4.385,4.385,0,0,1-.52-1.343l2.393.684a1.671,1.671,0,0,0,.407.048,1.709,1.709,0,0,0,.4-3.37l-2.359-.485c1.094-1.07,3.028-1.258,5.394-.506a.684.684,0,1,0,.417-1.3c-3.131-.995-5.732-.543-7.137,1.237a2.787,2.787,0,0,0-.188.26l-24.453-5.042c-.919-.219-2.1-.441-2.266.13-.12.417,1.135.8,2.051,1.025l23.9,6.908a5.606,5.606,0,0,0,.793,2.461c1.422,2.355,4.242,3.394,7.547,2.782,4.228-.783,7.92,1.395,7.178,3.951-.574,1.986-2.916,2.693-7.041,1.07a11.144,11.144,0,0,0-8.337.414c-.092-.626-.167-1.148-.209-1.436a5.7,5.7,0,0,0-2.393-3.418h0l-.041-.021a4.881,4.881,0,0,0-2.259-.6H129.35l6.836,7.451.749-.434a10.974,10.974,0,0,1,7.951-.684c3.616,1.367,7.65,1.49,8.75-1.921C154.986,63.68,149.343,61.027,144.886,62.206ZM136.8,57.476l-1.2-.291a.685.685,0,1,1,.318-1.333l1.2.287A4.717,4.717,0,0,0,136.8,57.476Zm1.658-1.008,1.941.461a.688.688,0,1,1-.157,1.367.623.623,0,0,1-.157-.021l-1.938-.461A3.418,3.418,0,0,1,138.456,56.467Z" transform="translate(-105.062 -50.011)" fill="#fff"/></g><circle cx="46.514" cy="46.514" r="46.514" transform="translate(6.976 6.976)" fill="none"/><text transform="translate(12.762 42.26) rotate(-71.06)" fill="#fff" font-size="6" font-family="TimesNewRomanPSMT, Times New Roman"><tspan x="0" y="0">J</tspan></text><text transform="matrix(0.398, -0.917, 0.917, 0.398, 14.539, 40.009)" fill="#fff" font-size="7" font-family="TimesNewRomanPSMT, Times New Roman"><tspan x="0" y="0">O</tspan></text><text transform="translate(16.592 35.346) rotate(-61.39)" fill="#fff" font-size="7" font-family="TimesNewRomanPSMT, Times New Roman"><tspan x="0" y="0">S</tspan></text><text transform="translate(18.453 31.916) rotate(-56.4)" fill="#fff" font-size="7" font-family="TimesNewRomanPSMT, Times New Roman"><tspan x="0" y="0">E</tspan></text><text transform="matrix(0.628, -0.778, 0.778, 0.628, 20.825, 28.34)" fill="#fff" font-size="7" font-family="TimesNewRomanPSMT, Times New Roman"><tspan x="0" y="0">F</tspan></text><text transform="translate(23.296 25.318) rotate(-46.82)" fill="#fff" font-size="7" font-family="TimesNewRomanPSMT, Times New Roman"><tspan x="0" y="0">I</tspan></text><text transform="translate(24.82 23.591) rotate(-41.45)" fill="#fff" font-size="7" font-family="TimesNewRomanPSMT, Times New Roman"><tspan x="0" y="0">N</tspan></text><text transform="translate(28.606 20.236) rotate(-34.007)" fill="#fff" font-size="7" font-family="TimesNewRomanPSMT, Times New Roman"><tspan x="0" y="0">A</tspan></text><text transform="translate(35.487 15.976) rotate(-20.27)" fill="#fff" font-size="7" font-family="TimesNewRomanPSMT, Times New Roman"><tspan x="0" y="0">M</tspan></text><text transform="matrix(0.975, -0.222, 0.222, 0.975, 40.829, 14.002)" fill="#fff" font-size="7" font-family="TimesNewRomanPSMT, Times New Roman"><tspan x="0" y="0">A</tspan></text><text transform="translate(44.94 13.021) rotate(-7.15)" fill="#fff" font-size="7" font-family="TimesNewRomanPSMT, Times New Roman"><tspan x="0" y="0">N</tspan></text><text transform="translate(49.332 12.228) rotate(-1.146)" fill="#fff" font-size="7" font-family="TimesNewRomanPSMT, Times New Roman"><tspan x="0" y="0">U</tspan></text><text transform="matrix(0.998, 0.06, -0.06, 0.998, 54.778, 12.307)" fill="#fff" font-size="7" font-family="TimesNewRomanPSMT, Times New Roman"><tspan x="0" y="0">F</tspan></text><text transform="translate(57.861 12.554) rotate(8.049)" fill="#fff" font-size="7" font-family="TimesNewRomanPSMT, Times New Roman"><tspan x="0" y="0">A</tspan></text><text transform="translate(62.145 12.007) rotate(13.39)" fill="#fff" font-size="6" font-family="TimesNewRomanPSMT, Times New Roman"><tspan x="0" y="0">C</tspan></text><text transform="matrix(0.945, 0.326, -0.326, 0.945, 65.934, 13.912)" fill="#fff" font-size="7" font-family="TimesNewRomanPSMT, Times New Roman"><tspan x="0" y="0">T</tspan></text><text transform="matrix(0.902, 0.431, -0.431, 0.902, 69.724, 15.168)" fill="#fff" font-size="7" font-family="TimesNewRomanPSMT, Times New Roman"><tspan x="0" y="0">U</tspan></text><text transform="translate(74.828 16.531) rotate(33.28)" fill="#fff" font-size="6" font-family="TimesNewRomanPSMT, Times New Roman"><tspan x="0" y="0">R</tspan></text><text transform="translate(77.715 19.646) rotate(37.674)" fill="#fff" font-size="7" font-family="TimesNewRomanPSMT, Times New Roman"><tspan x="0" y="0">I</tspan></text><text transform="translate(79.575 20.997) rotate(43.386)" fill="#fff" font-size="7" font-family="TimesNewRomanPSMT, Times New Roman"><tspan x="0" y="0">N</tspan></text><text transform="matrix(0.639, 0.769, -0.769, 0.639, 83.068, 24.277)" fill="#fff" font-size="7" font-family="TimesNewRomanPSMT, Times New Roman"><tspan x="0" y="0">G</tspan></text><text transform="matrix(0.576, 0.818, -0.818, 0.576, 87.905, 27.082)" fill="#fff" font-size="5" font-family="TimesNewRomanPSMT, Times New Roman"><tspan x="0" y="0">.</tspan></text><text transform="translate(88.659 31.823) rotate(60.611)" fill="#fff" font-size="7" font-family="TimesNewRomanPSMT, Times New Roman"><tspan x="0" y="0">I</tspan></text><text transform="translate(89.839 33.81) rotate(65.225)" fill="#fff" font-size="7" font-family="TimesNewRomanPSMT, Times New Roman"><tspan x="0" y="0">N</tspan></text><text transform="matrix(0.331, 0.944, -0.944, 0.331, 92.927, 38.095)" fill="#fff" font-size="6" font-family="TimesNewRomanPSMT, Times New Roman"><tspan x="0" y="0">C</tspan></text><text transform="translate(95.335 42.072) rotate(74.56)" fill="#fff" font-size="5" font-family="TimesNewRomanPSMT, Times New Roman"><tspan x="0" y="0">.</tspan></text><text transform="matrix(0.267, 0.964, -0.964, 0.267, 8.487, 61.208)" fill="#fff" font-size="6" font-family="TimesNewRomanPSMT, Times New Roman"><tspan x="0" y="0">G</tspan></text><text transform="matrix(0.41, 0.912, -0.912, 0.41, 10.478, 68.008)" fill="#fff" font-size="6" font-family="TimesNewRomanPSMT, Times New Roman"><tspan x="0" y="0">U</tspan></text><text transform="matrix(0.504, 0.864, -0.865, 0.503, 11.726, 72.61)" fill="#fff" font-size="6" font-family="TimesNewRomanPSMT, Times New Roman"><tspan x="0" y="0">A</tspan></text><text transform="translate(16.141 79.496) rotate(46.109)" fill="#fff" font-size="7" font-family="TimesNewRomanPSMT, Times New Roman"><tspan x="0" y="0">R</tspan></text><text transform="translate(20.229 84.748) rotate(37.875)" fill="#fff" font-size="7" font-family="TimesNewRomanPSMT, Times New Roman"><tspan x="0" y="0">A</tspan></text><text transform="translate(25.25 90.004) rotate(28.96)" fill="#fff" font-size="7" font-family="TimesNewRomanPSMT, Times New Roman"><tspan x="0" y="0">N</tspan></text><text transform="matrix(0.901, 0.434, -0.434, 0.901, 31.562, 93.453)" fill="#fff" font-size="6" font-family="TimesNewRomanPSMT, Times New Roman"><tspan x="0" y="0">T</tspan></text><text transform="matrix(0.955, 0.297, -0.298, 0.954, 36.38, 98.535)" fill="#fff" font-size="6" font-family="TimesNewRomanPSMT, Times New Roman"><tspan x="0" y="0">E</tspan></text><text transform="matrix(0.987, 0.161, -0.161, 0.987, 42.974, 97.803)" fill="#fff" font-size="6" font-family="TimesNewRomanPSMT, Times New Roman"><tspan x="0" y="0">E</tspan></text><text transform="translate(49.006 98.752) rotate(1.375)" fill="#fff" font-size="6" font-family="TimesNewRomanPSMT, Times New Roman"><tspan x="0" y="0">D</tspan></text><text transform="matrix(0.975, -0.222, 0.222, 0.975, 61.325, 98.363)" fill="#fff" font-size="6" font-family="TimesNewRomanPSMT, Times New Roman"><tspan x="0" y="0">A</tspan></text><text transform="translate(68.53 97.312) rotate(-18.138)" fill="#fff" font-size="7" font-family="TimesNewRomanPSMT, Times New Roman"><tspan x="0" y="0">U</tspan></text><text transform="matrix(0.853, -0.521, 0.521, 0.853, 74.772, 93.912)" fill="#fff" font-size="6" font-family="TimesNewRomanPSMT, Times New Roman"><tspan x="0" y="0">T</tspan></text><text transform="matrix(0.762, -0.647, 0.647, 0.762, 79.998, 90.676)" fill="#fff" font-size="6" font-family="TimesNewRomanPSMT, Times New Roman"><tspan x="0" y="0">H</tspan></text><text transform="matrix(0.661, -0.75, 0.75, 0.661, 85.33, 86.011)" fill="#fff" font-size="6" font-family="TimesNewRomanPSMT, Times New Roman"><tspan x="0" y="0">E</tspan></text><text transform="translate(89.657 81.514) rotate(-50.262)" fill="#fff" font-size="7" font-family="TimesNewRomanPSMT, Times New Roman"><tspan x="0" y="0">N</tspan></text><text transform="matrix(0.445, -0.895, 0.895, 0.445, 93.175, 75.511)" fill="#fff" font-size="6" font-family="TimesNewRomanPSMT, Times New Roman"><tspan x="0" y="0">T</tspan></text><text transform="matrix(0.355, -0.935, 0.935, 0.355, 95.777, 70.065)" fill="#fff" font-size="6" font-family="TimesNewRomanPSMT, Times New Roman"><tspan x="0" y="0">I</tspan></text><text transform="matrix(0.226, -0.974, 0.974, 0.226, 97.167, 66.589)" fill="#fff" font-size="6" font-family="TimesNewRomanPSMT, Times New Roman"><tspan x="0" y="0">C</tspan></text><text transform="translate(3.534 55.347)" fill="#fff" font-size="5" font-family="TimesNewRomanPS-BoldMT, Times New Roman" font-weight="700" letter-spacing="0.2em"><tspan x="0" y="0">SINCE</tspan></text><text transform="translate(85.716 55.347)" fill="#fff" font-size="5" font-family="TimesNewRomanPS-BoldMT, Times New Roman" font-weight="700" letter-spacing="0.22em"><tspan x="0" y="0">1969</tspan></text><path d="M56.159,116.406v-.8H68.7v.8h-1.06a3.083,3.083,0,0,0-2.611,1.06q-.52.684-.52,3.326v14.315a16.481,16.481,0,0,1-.721,5.356,8.306,8.306,0,0,1-2.5,3.572,6.334,6.334,0,0,1-4.276,1.524,4.733,4.733,0,0,1-3.2-1,2.981,2.981,0,0,1-1.166-2.3,2.167,2.167,0,0,1,.54-1.6,2.348,2.348,0,0,1,1.665-.684,1.9,1.9,0,0,1,1.241.455,7.264,7.264,0,0,1,1.391,2.417c.342.779.755,1.166,1.275,1.166a1.387,1.387,0,0,0,1.09-.711,4.581,4.581,0,0,0,.506-2.526v-20a9.7,9.7,0,0,0-.28-2.936,1.921,1.921,0,0,0-.906-.93,3.979,3.979,0,0,0-1.965-.506Z" transform="translate(-34.656 -76.093)" fill="#e51e25"/><path d="M119.861,144.87l-11.317-24.638v19.562c0,1.8.195,2.922.584,3.37a3.188,3.188,0,0,0,2.526.906h1.025v.8H102.5v-.8h1.025a2.981,2.981,0,0,0,2.635-1.121,6.573,6.573,0,0,0,.472-3.155V120.652a6.709,6.709,0,0,0-.431-2.806,2.393,2.393,0,0,0-1.111-1.046,5.862,5.862,0,0,0-2.6-.424v-.8h8.289l10.627,22.9,10.449-22.9h8.292v.8h-1.025a3,3,0,0,0-2.656,1.125,6.521,6.521,0,0,0-.475,3.151v19.141c0,1.8.2,2.922.605,3.37a3.189,3.189,0,0,0,2.526.906h1.025v.8H127.719v-.8h1.025a2.944,2.944,0,0,0,2.635-1.121,6.475,6.475,0,0,0,.475-3.155V120.232l-11.28,24.638Z" transform="translate(-67.458 -76.073)" fill="#e51e25"/><path d="M228.558,144.09v.8H216v-.8h1.025a3.13,3.13,0,0,0,2.635-1.056q.516-.684.52-3.326V120.792a9.78,9.78,0,0,0-.28-2.936,1.955,1.955,0,0,0-.889-.93,4.1,4.1,0,0,0-1.986-.52H216v-.8h12.544v.8h-1.056a3.09,3.09,0,0,0-2.615,1.06q-.54.684-.537,3.326v18.916a9.7,9.7,0,0,0,.28,2.936,1.935,1.935,0,0,0,.906.93,3.975,3.975,0,0,0,1.965.516Z" transform="translate(-142.169 -76.093)" fill="#e51e25"/></svg>