<svg xmlns="http://www.w3.org/2000/svg" width="69.693" height="16.543" viewBox="0 0 69.693 16.543"><g transform="translate(0)"><g transform="translate(0 0.91)"><path d="M0,12.06H2.67V24.906h4.6v2.535H.011L0,12.06" transform="translate(0 -12.06)" fill="#fff"/></g><g transform="translate(7.992 4.763)"><path d="M111.352,63.111a4.529,4.529,0,0,1,3.623,1.743V63.339h2.491V74.661h-2.491V73.147a4.524,4.524,0,0,1-3.623,1.743,5.907,5.907,0,0,1,0-11.78m.453,2.264A3.634,3.634,0,1,0,115.155,69a3.371,3.371,0,0,0-3.35-3.623" transform="translate(-105.89 -63.11)" fill="#fff"/></g><g transform="translate(21.511 4.989)"><path d="M285,75.459l5.936-7.095h-5.849V66.1h9.065v2l-5.914,7.065h6.046v2.264H285V75.459" transform="translate(-285 -66.1)" fill="#fff"/></g><g transform="translate(31.677 4.763)"><path d="M425.152,63.111a4.529,4.529,0,0,1,3.623,1.743V63.339h2.491V74.661H428.78V73.147a4.523,4.523,0,0,1-3.623,1.743,5.907,5.907,0,0,1,0-11.78m.453,2.264A3.634,3.634,0,1,0,428.961,69a3.371,3.371,0,0,0-3.351-3.623" transform="translate(-419.7 -63.11)" fill="#fff"/></g><g transform="translate(44.899)"><path d="M600.332,4.764a4.505,4.505,0,0,1,3.623,1.743V0h2.491V16.314h-2.491V14.8a4.505,4.505,0,0,1-3.623,1.743,5.642,5.642,0,0,1-5.462-5.892,5.637,5.637,0,0,1,5.462-5.887m.453,2.264a3.371,3.371,0,0,0-3.351,3.623,3.361,3.361,0,1,0,6.7,0,3.371,3.371,0,0,0-3.351-3.623" transform="translate(-594.87)" fill="#fff"/></g><g transform="translate(58.117 4.763)"><path d="M775.469,63.111a4.507,4.507,0,0,1,3.623,1.743V63.339h2.485V74.661h-2.5V73.147a4.507,4.507,0,0,1-3.619,1.743,5.906,5.906,0,0,1,.014-11.78m.453,2.264A3.634,3.634,0,1,0,779.277,69a3.371,3.371,0,0,0-3.351-3.623" transform="translate(-770 -63.11)" fill="#fff"/></g></g></svg>