<svg xmlns="http://www.w3.org/2000/svg" width="70.09" height="22.39" viewBox="0 0 70.09 22.39"><g transform="translate(0)"><path d="M.326,14.395a.746.746,0,0,1-.2-1.022.746.746,0,0,1,1.022-.2q.307.2.675.429a9.119,9.119,0,0,0,4.539,1.534A3.126,3.126,0,0,0,9.078,13.8h0c.041-.061.082-.1.082-.143a3.985,3.985,0,0,0,.389-.859,2.6,2.6,0,0,0-.1-1.759A3.577,3.577,0,0,0,7.912,9.426h0a8.279,8.279,0,0,0-1.943-.818A7.875,7.875,0,0,1,1.737,6.215c-.859-1.166-.92-2.556,0-4.253A4.106,4.106,0,0,1,5.192.02,9.056,9.056,0,0,1,9.9,1.1a.732.732,0,1,1-.654,1.309,7.54,7.54,0,0,0-3.926-.92,2.658,2.658,0,0,0-2.27,1.186,2.338,2.338,0,0,0-.1,2.679A6.473,6.473,0,0,0,6.378,7.217a8.774,8.774,0,0,1,2.29.982h0a5.071,5.071,0,0,1,2.106,2.29,3.961,3.961,0,0,1,.164,2.74,5.038,5.038,0,0,1-.552,1.227,1.313,1.313,0,0,0-.123.2h0a4.526,4.526,0,0,1-3.946,1.963,10.526,10.526,0,0,1-5.3-1.738,7.893,7.893,0,0,0-.7-.491Z" transform="translate(-0.001 -0.002)" fill="#fff"/><path d="M65.49.832a.738.738,0,0,1,1.472,0V16.025a.738.738,0,0,1-1.472,0Z" transform="translate(-52.099 -0.118)" fill="#fff"/><path d="M67.78,35.258a.741.741,0,1,1-1.145-.941,7.579,7.579,0,0,1,3.64-2.576,4.687,4.687,0,0,1,2.536-.082,3.556,3.556,0,0,1,1.983,1.37,4.194,4.194,0,0,1,.736,2.495v5.439a.736.736,0,1,1-1.472,0V35.524a2.84,2.84,0,0,0-.45-1.656,2.149,2.149,0,0,0-1.166-.8,3.176,3.176,0,0,0-1.738.061A6.33,6.33,0,0,0,67.78,35.258Z" transform="translate(-52.876 -25.078)" fill="#fff"/><path d="M126.283,31.49a5.067,5.067,0,0,1,3.6,1.493h0a5.09,5.09,0,0,1-7.2,7.2h0a5.085,5.085,0,0,1,0-7.2h0a5.112,5.112,0,0,1,3.6-1.493Zm2.576,2.515a3.654,3.654,0,0,0-5.153,0h0a3.654,3.654,0,0,0,0,5.153h0A3.644,3.644,0,1,0,128.859,34Z" transform="translate(-96.411 -25.051)" fill="#fff"/><path d="M181.19,32.226a.736.736,0,1,1,1.472,0v.92a1.226,1.226,0,0,1,.164-.164h0a5.085,5.085,0,0,1,7.2,0h0a5.09,5.09,0,0,1-7.2,7.2h0a1.227,1.227,0,0,0-.164-.164v6.686a.736.736,0,1,1-1.472,0Zm7.791,1.779a3.654,3.654,0,0,0-5.153,0h0a3.654,3.654,0,0,0,0,5.153h0A3.644,3.644,0,1,0,188.981,34Z" transform="translate(-144.141 -25.051)" fill="#fff"/><path d="M247.152,31.488a4.478,4.478,0,0,1,3.231,1.35,4.961,4.961,0,0,1,1.227,2.127c.634,2.065-.573,1.983-.941,1.983H243.9a6.521,6.521,0,0,0,.327,1.35,3.114,3.114,0,0,0,1.145,1.431,3.531,3.531,0,0,0,1.922.491,7.48,7.48,0,0,0,2.842-.675.733.733,0,0,1,.573,1.35,9.379,9.379,0,0,1-3.394.777,4.746,4.746,0,0,1-2.72-.716,4.008,4.008,0,0,1-1.718-2.106,5.528,5.528,0,0,1,1.043-6.012A4.366,4.366,0,0,1,247.152,31.488Zm2.208,2.392a3.11,3.11,0,0,0-4.417,0,3.77,3.77,0,0,0-.961,1.574h6.359a4.294,4.294,0,0,0-.981-1.574Z" transform="translate(-192.865 -25.049)" fill="#fff"/><path d="M301.752,31.488a4.478,4.478,0,0,1,3.231,1.35,4.96,4.96,0,0,1,1.227,2.127c.634,2.065-.573,1.983-.941,1.983H298.5a6.521,6.521,0,0,0,.327,1.35,3.114,3.114,0,0,0,1.145,1.431,3.531,3.531,0,0,0,1.922.491,7.48,7.48,0,0,0,2.842-.675.733.733,0,0,1,.573,1.35,9.38,9.38,0,0,1-3.394.777,4.746,4.746,0,0,1-2.72-.716,4.008,4.008,0,0,1-1.718-2.106,5.528,5.528,0,0,1,1.043-6.012A4.366,4.366,0,0,1,301.752,31.488Zm2.208,2.392a3.11,3.11,0,0,0-4.417,0,3.771,3.771,0,0,0-.961,1.574h6.359A4.294,4.294,0,0,0,303.96,33.88Z" transform="translate(-236.3 -25.049)" fill="#fff"/></g></svg>