<svg xmlns="http://www.w3.org/2000/svg" width="201.141" height="62.095" viewBox="0 0 201.141 62.095"><g transform="translate(-29.46 -28.8)"><path d="M29.46,56.26h1.735c.977,4.433,2.57,7.71,4.716,9.689a10.717,10.717,0,0,0,7.492,3.02q4.1,0,5.821-2.069a6.772,6.772,0,0,0,1.735-4.433,5.641,5.641,0,0,0-1.825-4.356,22.629,22.629,0,0,0-4.844-2.84l-3.855-1.928A25.443,25.443,0,0,1,32.261,47.7a10.28,10.28,0,0,1-2.377-6.888,12.555,12.555,0,0,1,3.135-8.147q3.161-3.778,9.663-3.778a20.483,20.483,0,0,1,6.425.989,25.031,25.031,0,0,0,3.534.989,1.555,1.555,0,0,0,1.324-.527,5.037,5.037,0,0,0,.6-1.542h1.8V41.766H54.7a17.99,17.99,0,0,0-4.241-7.71,9.7,9.7,0,0,0-7.35-3.264,6.836,6.836,0,0,0-4.832,1.67,5.14,5.14,0,0,0-1.7,3.932,5.217,5.217,0,0,0,1.606,4.228,39.154,39.154,0,0,0,7.3,4.189l4.51,2.236a17.682,17.682,0,0,1,4.793,3.29,11.244,11.244,0,0,1,3.341,8.2,12.632,12.632,0,0,1-3.559,8.481Q50.984,71,43.094,71a20.109,20.109,0,0,1-3.688-.347,18.967,18.967,0,0,1-3.662-1.015L34.574,69.2a6.812,6.812,0,0,0-.8-.167,2.635,2.635,0,0,0-.642-.09,1.388,1.388,0,0,0-1.285.553,5.294,5.294,0,0,0-.617,1.5H29.46Z" fill="red" fill-rule="evenodd"/><path d="M86.453,61.35a38.383,38.383,0,0,0,1.285-11.218q0-9.522-2.878-14.341a8.635,8.635,0,0,0-7.71-4.832q-6.811,0-9.316,8.057a38.859,38.859,0,0,0-1.285,11.115A38.2,38.2,0,0,0,67.834,61.35q2.493,7.941,9.278,7.941T86.453,61.35Zm5.821-26.587a20.406,20.406,0,0,1,6.181,15.42A20.38,20.38,0,0,1,92.274,65.6,20.843,20.843,0,0,1,77.2,71.424,20.676,20.676,0,0,1,61.537,65a20.367,20.367,0,0,1-5.654-14.482A21.061,21.061,0,0,1,61.807,35.1a20.56,20.56,0,0,1,15.42-6.1,20.8,20.8,0,0,1,15.047,5.77Z" transform="translate(7.527 0.051)" fill="red" fill-rule="evenodd"/><path d="M109.39,69.932V68.4a8.584,8.584,0,0,0,3.662-.694,3.636,3.636,0,0,0,1.671-3.5V35.391A3.611,3.611,0,0,0,113,31.87a9.123,9.123,0,0,0-3.611-.694V29.66h34.554v12h-1.465c-.771-3.855-2.069-6.425-3.855-7.89s-5.14-2.12-9.959-2.12a6.682,6.682,0,0,0-3.508.578,2.724,2.724,0,0,0-.732,2.249v13.8c3.418,0,5.718-.578,6.939-1.838s2.133-3.611,2.776-6.978h1.529V59.652h-1.529c-.424-3.392-1.285-5.77-2.634-7.157s-3.662-2.095-7.08-2.095V64.792a3.033,3.033,0,0,0,.964,2.57,8.2,8.2,0,0,0,4.035.668,17.861,17.861,0,0,0,9.368-2.21q3.637-2.21,6.425-8.3h1.658l-2.441,12.413Z" transform="translate(22.78 0.245)" fill="red" fill-rule="evenodd"/><path d="M95.118,41.81h14.726l-2.9,6.9H92.24Z" transform="translate(17.892 3.708)" fill="red" fill-rule="evenodd"/><path d="M141.87,68.4c2.223,0,3.649-.475,4.3-1.285a5.474,5.474,0,0,0,.964-3.5V35.353a48.965,48.965,0,0,0-3.405-3.572,3.187,3.187,0,0,0-1.748-.694V29.66h12.7l20.56,25.1h.3V37.049a6.6,6.6,0,0,0-1.105-4.3c-.745-.874-2.236-1.4-4.459-1.568V29.66h12.914v1.516a8.622,8.622,0,0,0-3.778,1.285c-.63.527-.938,1.7-.938,3.521V71.063H176.5L150.184,39.169h-.437V62.556a7.208,7.208,0,0,0,.758,3.855c.8,1.221,2.441,1.889,4.922,1.979v1.542H141.87Z" transform="translate(32.037 0.245)" fill="red" fill-rule="evenodd"/><path d="M178.479,54.357a5.448,5.448,0,0,0,0,7.71,5.217,5.217,0,0,0,3.855,1.593,5.14,5.14,0,0,0,3.855-1.606,5.448,5.448,0,0,0,0-7.71,5.32,5.32,0,0,0-7.71,0Zm8.455,8.507a6.541,6.541,0,0,1-11.154-4.7,6.271,6.271,0,0,1,2.043-4.767,6.425,6.425,0,0,1,4.51-1.773,6.579,6.579,0,0,1,4.6,11.269Zm-4-6.9a3.11,3.11,0,0,0-1.105-.154h-.463v2.12h.732a1.8,1.8,0,0,0,1.054-.27,1,1,0,0,0,.373-.861A.848.848,0,0,0,182.938,55.963Zm-3.469,5.847V54.537h3.521a3.534,3.534,0,0,1,1.439.373,1.838,1.838,0,0,1,.964,1.735,1.568,1.568,0,0,1-.514,1.285,2.364,2.364,0,0,1-1.285.5,2.467,2.467,0,0,1,1.041.411,1.979,1.979,0,0,1,.642,1.632v1.079l.064.206h-1.812a4.5,4.5,0,0,1-.116-1.015,3.393,3.393,0,0,0-.116-.887.848.848,0,0,0-.54-.527,1.85,1.85,0,0,0-.643-.116h-.822v2.57Z" transform="translate(41.701 6.504)" fill="red" fill-rule="evenodd"/><path d="M55.77,67h1.722V78.154H63.84V79.67H55.77Z" transform="translate(7.498 10.887)" fill="red"/><path d="M68.68,67h1.7V79.67h-1.7Z" transform="translate(11.178 10.887)" fill="red"/><path d="M77.16,67h2.017L85.5,77.28V67h1.645V79.67H85.217L78.792,69.39V79.67H77.16Z" transform="translate(13.595 10.887)" fill="red"/><path d="M97.564,66.771a6.258,6.258,0,0,1,3.033.694,4.485,4.485,0,0,1,2.287,3.469h-1.709a3.033,3.033,0,0,0-1.285-2.017,4.228,4.228,0,0,0-2.377-.565,3.765,3.765,0,0,0-2.84,1.285,5.77,5.77,0,0,0-1.285,3.855,6.425,6.425,0,0,0,.964,3.688,3.6,3.6,0,0,0,3.225,1.452,4.06,4.06,0,0,0,2.788-.989,4.292,4.292,0,0,0,1.131-3.225H97.525V72.99h5.564v6.785h-1.105l-.411-1.632a6.207,6.207,0,0,1-1.529,1.285,5.59,5.59,0,0,1-2.814.642,5.461,5.461,0,0,1-3.842-1.439,6.965,6.965,0,0,1-1.735-5.012,7.26,7.26,0,0,1,1.735-5.05,5.371,5.371,0,0,1,4.189-1.8Z" transform="translate(17.722 10.821)" fill="red"/><path d="M107.84,67h9.2v1.542h-7.517V72.4h6.952v1.465h-6.952v4.292h7.71V79.67h-9.316Z" transform="translate(22.338 10.887)" fill="red"/><path d="M122,67h5.757a5.654,5.654,0,0,1,2.352.424,2.981,2.981,0,0,1,1.748,2.981,3.367,3.367,0,0,1-.463,1.863,3.456,3.456,0,0,1-1.285,1.169,2.57,2.57,0,0,1,1.118.8,2.75,2.75,0,0,1,.424,1.593l.064,1.7a4.87,4.87,0,0,0,.116,1.079,1.067,1.067,0,0,0,.553.784v.283h-2.107a2.337,2.337,0,0,1-.141-.424q0-.27-.077-1l-.1-2.107a1.8,1.8,0,0,0-.9-1.671,3.662,3.662,0,0,0-1.5-.231H123.7v5.436H122Zm5.577,5.8a3.2,3.2,0,0,0,1.863-.475,2,2,0,0,0,.681-1.748,1.863,1.863,0,0,0-.964-1.838,2.917,2.917,0,0,0-1.362-.27h-4.073V72.8Z" transform="translate(26.374 10.886)" fill="red"/><path d="M137,67h1.735V79.67H137Z" transform="translate(30.649 10.887)" fill="red"/><path d="M145.64,67h9.2v1.542h-7.53V72.4h6.952v1.465h-6.952v4.292h7.71V79.67h-9.329Z" transform="translate(33.111 10.887)" fill="red"/></g></svg>