<svg xmlns="http://www.w3.org/2000/svg" width="82.801" height="25.562" viewBox="0 0 82.801 25.562"><g transform="translate(-29.46 -28.8)"><path d="M29.46,40.1h.714a7.56,7.56,0,0,0,1.941,3.988A4.412,4.412,0,0,0,35.2,45.336a2.962,2.962,0,0,0,2.4-.852,2.788,2.788,0,0,0,.714-1.825,2.322,2.322,0,0,0-.751-1.793A9.315,9.315,0,0,0,35.564,39.7L33.977,38.9a10.474,10.474,0,0,1-3.364-2.322,4.232,4.232,0,0,1-.979-2.835,5.168,5.168,0,0,1,1.291-3.354A4.894,4.894,0,0,1,34.9,28.837a8.432,8.432,0,0,1,2.645.407A10.3,10.3,0,0,0,39,29.652a.64.64,0,0,0,.545-.217A2.074,2.074,0,0,0,39.8,28.8h.741v5.337h-.688A7.406,7.406,0,0,0,38.1,30.964a3.994,3.994,0,0,0-3.026-1.344,2.814,2.814,0,0,0-1.989.688,2.116,2.116,0,0,0-.7,1.619,2.148,2.148,0,0,0,.661,1.74,16.118,16.118,0,0,0,3,1.724l1.857.92a7.279,7.279,0,0,1,1.973,1.354,4.629,4.629,0,0,1,1.375,3.375A5.2,5.2,0,0,1,39.8,44.532q-1.476,1.64-4.724,1.64a8.278,8.278,0,0,1-1.518-.143,7.808,7.808,0,0,1-1.508-.418l-.481-.18a2.8,2.8,0,0,0-.328-.069,1.084,1.084,0,0,0-.264-.037.571.571,0,0,0-.529.227,2.179,2.179,0,0,0-.254.619h-.73Z" fill="#fff" fill-rule="evenodd"/><path d="M68.459,42.3a15.8,15.8,0,0,0,.529-4.618,11.726,11.726,0,0,0-1.185-5.9,3.555,3.555,0,0,0-3.174-1.989q-2.8,0-3.835,3.317a16,16,0,0,0-.529,4.576,15.727,15.727,0,0,0,.529,4.618q1.026,3.269,3.819,3.269T68.459,42.3Zm2.4-10.945A8.4,8.4,0,0,1,73.4,37.707a8.39,8.39,0,0,1-2.544,6.348A9.207,9.207,0,0,1,58.2,43.806a8.384,8.384,0,0,1-2.328-5.962A8.67,8.67,0,0,1,58.314,31.5a8.464,8.464,0,0,1,6.348-2.513,8.564,8.564,0,0,1,6.194,2.375Z" transform="translate(-12.439 -0.084)" fill="#fff" fill-rule="evenodd"/><path d="M109.39,46.238v-.629a3.534,3.534,0,0,0,1.508-.286,1.5,1.5,0,0,0,.688-1.439V32.019a1.486,1.486,0,0,0-.709-1.449,3.756,3.756,0,0,0-1.486-.286V29.66h14.224V34.6h-.6a5.439,5.439,0,0,0-1.587-3.248c-.735-.6-2.116-.873-4.1-.873a2.751,2.751,0,0,0-1.444.238,1.121,1.121,0,0,0-.3.926v5.681a3.979,3.979,0,0,0,2.856-.756,5.808,5.808,0,0,0,1.143-2.872h.629v8.31h-.629a5.12,5.12,0,0,0-1.084-2.946,3.955,3.955,0,0,0-2.915-.862v5.925a1.248,1.248,0,0,0,.4,1.058,3.375,3.375,0,0,0,1.661.275,7.353,7.353,0,0,0,3.856-.91,7.5,7.5,0,0,0,2.645-3.417h.682l-1.005,5.11Z" transform="translate(-37.649 -0.405)" fill="#fff" fill-rule="evenodd"/><path d="M93.425,41.81h6.062l-1.2,2.841H92.24Z" transform="translate(-29.571 -6.128)" fill="#fff" fill-rule="evenodd"/><path d="M141.87,45.609a1.727,1.727,0,0,0,2.169-1.968V32a20.16,20.16,0,0,0-1.4-1.471,1.312,1.312,0,0,0-.719-.286V29.66h5.226l8.464,10.331h.122V32.7a2.719,2.719,0,0,0-.455-1.772,2.655,2.655,0,0,0-1.836-.645V29.66h5.316v.624a3.55,3.55,0,0,0-1.555.529,1.915,1.915,0,0,0-.386,1.449V46.7h-.688L145.292,33.574h-.18V43.2a2.968,2.968,0,0,0,.312,1.587,2.378,2.378,0,0,0,2.026.815v.635H141.87Z" transform="translate(-52.948 -0.405)" fill="#fff" fill-rule="evenodd"/><path d="M176.89,52.747a2.243,2.243,0,0,0,0,3.174,2.148,2.148,0,0,0,1.587.656,2.116,2.116,0,0,0,1.587-.661,2.243,2.243,0,0,0,0-3.174,2.19,2.19,0,0,0-3.174,0Zm3.481,3.5a2.692,2.692,0,0,1-4.592-1.936,2.581,2.581,0,0,1,.841-1.963,2.645,2.645,0,0,1,1.857-.73,2.708,2.708,0,0,1,1.894,4.639Zm-1.645-2.841a1.28,1.28,0,0,0-.455-.063h-.19v.873h.3a.741.741,0,0,0,.434-.111.413.413,0,0,0,.153-.354.349.349,0,0,0-.243-.344ZM177.3,55.815V52.821h1.449a1.455,1.455,0,0,1,.592.153.756.756,0,0,1,.4.714.645.645,0,0,1-.212.529.973.973,0,0,1-.529.206,1.016,1.016,0,0,1,.428.169.815.815,0,0,1,.264.672v.444l.026.085h-.746a1.85,1.85,0,0,1-.048-.418,1.4,1.4,0,0,0-.048-.365.349.349,0,0,0-.222-.217.762.762,0,0,0-.264-.048h-.339V55.8Z" transform="translate(-68.919 -10.749)" fill="#fff" fill-rule="evenodd"/><path d="M55.77,67h.709v4.592h2.613v.624H55.77Z" transform="translate(-12.393 -17.993)" fill="#fff"/><path d="M68.68,67h.7v5.216h-.7Z" transform="translate(-18.473 -17.993)" fill="#fff"/><path d="M77.16,67h.83l2.6,4.232V67h.677v5.216h-.793l-2.645-4.232v4.232H77.16Z" transform="translate(-22.468 -17.993)" fill="#fff"/><path d="M94.079,66.769a2.576,2.576,0,0,1,1.248.286,1.846,1.846,0,0,1,.942,1.428h-.7a1.248,1.248,0,0,0-.529-.83,1.74,1.74,0,0,0-.979-.233,1.55,1.55,0,0,0-1.169.529,2.375,2.375,0,0,0-.529,1.587,2.645,2.645,0,0,0,.4,1.518,1.481,1.481,0,0,0,1.328.6,1.672,1.672,0,0,0,1.148-.407,1.767,1.767,0,0,0,.465-1.328H94.063v-.587h2.29v2.793H95.9l-.169-.672a2.555,2.555,0,0,1-.629.529,2.3,2.3,0,0,1-1.158.264,2.248,2.248,0,0,1-1.582-.592,2.867,2.867,0,0,1-.714-2.063,2.989,2.989,0,0,1,.714-2.079,2.211,2.211,0,0,1,1.724-.741Z" transform="translate(-29.289 -17.884)" fill="#fff"/><path d="M107.84,67h3.787v.635h-3.095v1.587h2.862v.6h-2.862v1.767h3.174v.624h-3.835Z" transform="translate(-36.919 -17.993)" fill="#fff"/><path d="M122,67h2.37a2.328,2.328,0,0,1,.968.175,1.227,1.227,0,0,1,.719,1.227,1.386,1.386,0,0,1-.19.767,1.423,1.423,0,0,1-.529.481,1.058,1.058,0,0,1,.46.328,1.132,1.132,0,0,1,.175.656l.026.7a2.005,2.005,0,0,0,.048.444.439.439,0,0,0,.227.323v.116h-.868a.963.963,0,0,1-.058-.175q0-.111-.032-.413l-.042-.868a.741.741,0,0,0-.37-.688,1.507,1.507,0,0,0-.619-.1H122.7v2.238H122Zm2.3,2.386a1.317,1.317,0,0,0,.767-.2.825.825,0,0,0,.28-.719.767.767,0,0,0-.4-.756,1.2,1.2,0,0,0-.561-.111h-1.677v1.783Z" transform="translate(-43.588 -17.992)" fill="#fff"/><path d="M137,67h.714v5.216H137Z" transform="translate(-50.654 -17.993)" fill="#fff"/><path d="M145.64,67h3.788v.635h-3.1v1.587h2.862v.6h-2.862v1.767H149.5v.624h-3.84Z" transform="translate(-54.723 -17.993)" fill="#fff"/></g></svg>