<svg xmlns="http://www.w3.org/2000/svg" width="27.678" height="21.719" viewBox="0 0 27.678 21.719"><path d="M27.645,11.64a.14.14,0,0,0-.161-.036,11.385,11.385,0,0,1-2.595.758,5.553,5.553,0,0,0,2.025-2.74.129.129,0,0,0-.045-.144.142.142,0,0,0-.156-.01,11.354,11.354,0,0,1-3.453,1.284,5.894,5.894,0,0,0-4.151-1.7A5.663,5.663,0,0,0,13.35,14.6a5.389,5.389,0,0,0,.111,1.092,16.086,16.086,0,0,1-11.309-5.6.141.141,0,0,0-.225.017,5.39,5.39,0,0,0-.78,2.79,5.47,5.47,0,0,0,2.168,4.341,5.653,5.653,0,0,1-2.01-.626.141.141,0,0,0-.135,0,.132.132,0,0,0-.069.112V16.8a5.6,5.6,0,0,0,4.049,5.3,5.739,5.739,0,0,1-1.915-.027.142.142,0,0,0-.129.042.129.129,0,0,0-.028.128,5.72,5.72,0,0,0,5,3.834,11.355,11.355,0,0,1-6.6,2.073,11.82,11.82,0,0,1-1.325-.075.14.14,0,0,0-.146.087.13.13,0,0,0,.055.156,16.52,16.52,0,0,0,8.693,2.455A15.678,15.678,0,0,0,24.889,15.229q0-.319-.013-.635a11.258,11.258,0,0,0,2.779-2.8A.129.129,0,0,0,27.645,11.64Z" transform="translate(0 -9.053)" fill="#fff"/></svg>