<svg xmlns="http://www.w3.org/2000/svg" preserveAspectRatio="none" height="32" width="32">
  <path d="M1 26.63h30v1.5H1z"/>
  <path d="M1.4 28.6l15-25.97 1.3.75-15 25.98z"/>
  <path d="M30.67 28.61l-15-25.98-1.3.75 15 25.98z"/>
  <g>
    <path d="M13.73 14.62v1.28h.75q.38 0 .57-.16.18-.16.18-.48 0-.33-.18-.48-.19-.16-.57-.16zm0-1.43v1.05h.7q.34 0 .5-.13.18-.13.18-.4 0-.26-.17-.39t-.51-.13zm-.47-.39h1.2q.54 0 .83.23.3.22.3.63 0 .32-.16.51-.15.19-.44.24.35.07.54.3.2.24.2.6 0 .46-.32.72-.32.25-.9.25h-1.25zM18.53 12.92v.46q-.27-.13-.5-.2-.24-.06-.46-.06-.39 0-.6.15-.2.15-.2.43 0 .23.13.35.14.11.53.18l.28.06q.53.1.78.36.25.25.25.67 0 .5-.34.77-.34.26-1 .26-.24 0-.52-.06-.28-.05-.57-.16v-.49q.28.16.56.25.27.08.54.08.4 0 .62-.16.22-.16.22-.45 0-.26-.16-.4-.15-.15-.51-.22l-.29-.06q-.53-.1-.76-.32-.24-.23-.24-.63 0-.46.33-.72.32-.27.9-.27.24 0 .5.04.25.05.51.14z"/>
  </g>
  <g>
    <path d="M14.2 21.6v2.93h1.78q.9 0 1.33-.36.43-.36.43-1.1 0-.76-.43-1.11-.43-.36-1.33-.36zm0-3.3v2.42h1.64q.82 0 1.22-.3t.4-.9q0-.61-.4-.91-.4-.3-1.22-.3zm-1.12-.88h2.85q1.27 0 1.96.51.69.52.69 1.46 0 .74-.36 1.17-.35.44-1.03.55.82.17 1.27.71.46.55.46 1.36 0 1.08-.75 1.66-.75.58-2.13.58h-2.96z"/>
  </g>
</svg>
